Coordinates
version=1
nRows=9
nColumns=63
inDegrees=yes

Units are S.I. units (second, meters, Newtons, ...)
If the header above contains a line with 'inDegrees', this indicates whether rotational values are in degrees (yes) or radians (no).

endheader
time	pelvis_tilt	pelvis_list	pelvis_rotation	pelvis_tx	pelvis_ty	pelvis_tz	hip_flexion_r	hip_adduction_r	hip_rotation_r	knee_angle_r	knee_angle_r_beta	ankle_angle_r	subtalar_angle_r	mtp_angle_r	hip_flexion_l	hip_adduction_l	hip_rotation_l	knee_angle_l	knee_angle_l_beta	ankle_angle_l	subtalar_angle_l	mtp_angle_l	L5_S1_Flex_Ext	L5_S1_Lat_Bending	L5_S1_axial_rotation	L4_L5_Flex_Ext	L4_L5_Lat_Bending	L4_L5_axial_rotation	L3_L4_Flex_Ext	L3_L4_Lat_Bending	L3_L4_axial_rotation	L2_L3_Flex_Ext	L2_L3_Lat_Bending	L2_L3_axial_rotation	L1_L2_Flex_Ext	L1_L2_Lat_Bending	L1_L2_axial_rotation	L1_T12_Flex_Ext	L1_T12_Lat_Bending	L1_T12_axial_rotation	Abs_r3	Abs_r2	Abs_r1	Abs_t1	Abs_t2	neck_flexion	neck_bending	neck_rotation	arm_flex_r	arm_add_r	arm_rot_r	elbow_flex_r	pro_sup_r	wrist_flex_r	wrist_dev_r	arm_flex_l	arm_add_l	arm_rot_l	elbow_flex_l	pro_sup_l	wrist_flex_l	wrist_dev_l
1.661017	-0.326267	-1.858025	81.053415	0.267060	0.954003	0.565909	2.888815	-1.727087	-3.946381	15.867462	0.276939	41.199127	13.213316	0.000000	-3.330490	2.639279	1.846701	5.839585	0.101920	34.308379	-8.953577	0.000000	0.365442	-0.119887	2.237911	0.678662	-0.159449	2.377780	0.600385	-0.291492	2.377780	0.417664	-0.291492	1.958172	0.339349	-0.244473	1.818303	0.208814	-0.185704	1.678433	2.610315	-1.356181	12.446589	0.000000	0.000000	27.118370	-7.275433	-14.806232	15.408661	-2.904385	81.008209	22.849164	26.795799	10.115100	2.685215	26.567873	-0.390989	114.888377	29.352827	16.090118	6.827198	-9.412202
1.677966	-0.172595	-1.715328	80.980699	0.267356	0.954202	0.564930	2.724021	-1.584848	-3.930460	15.948081	0.278347	41.497817	13.461348	0.000000	-3.695462	2.521273	2.281133	5.550922	0.096882	34.243621	-9.448039	0.000000	0.350290	-0.091904	2.199456	0.650524	-0.122232	2.336922	0.575492	-0.223455	2.336922	0.400347	-0.223455	1.924524	0.325280	-0.187410	1.787058	0.200156	-0.142359	1.649592	2.502088	-1.039634	12.232716	0.000000	0.000000	27.044376	-7.301302	-14.304834	15.356421	-2.900786	80.890956	22.878888	27.256529	10.009006	2.703866	26.264655	-0.497971	114.083012	29.317689	16.387731	6.854597	-9.297089
1.694915	-0.032610	-1.581171	80.919991	0.267707	0.954392	0.563921	2.521065	-1.451099	-3.937973	15.941820	0.278237	41.746897	13.715424	0.000000	-4.055316	2.412344	2.776878	5.262445	0.091847	34.132689	-10.038842	0.000000	0.335554	-0.066936	2.172010	0.623157	-0.089025	2.307760	0.551281	-0.162749	2.307760	0.383504	-0.162749	1.900508	0.311595	-0.136497	1.764758	0.191735	-0.103685	1.629007	2.396826	-0.757198	12.080066	0.000000	0.000000	26.930955	-7.323432	-13.929653	15.299777	-2.896327	80.825771	22.901039	27.609380	9.902977	2.725351	25.994084	-0.589145	113.385082	29.286623	16.668377	6.900002	-9.170898
1.711864	0.079903	-1.459381	80.870101	0.268103	0.954570	0.562940	2.287580	-1.341812	-3.983896	15.853946	0.276704	41.926199	13.971646	0.000000	-4.394539	2.327029	3.309676	4.983071	0.086971	33.970052	-10.701101	0.000000	0.320627	-0.046842	2.158155	0.595437	-0.062300	2.293039	0.526759	-0.113893	2.293039	0.366445	-0.113893	1.888385	0.297735	-0.095521	1.753501	0.183207	-0.072559	1.618616	2.290210	-0.529891	12.003010	0.000000	0.000000	26.763353	-7.326802	-13.685255	15.226884	-2.891645	80.713216	22.919571	27.965805	9.775440	2.731014	25.771848	-0.663998	112.810904	29.261991	16.945629	6.970215	-9.034875
1.728814	0.157495	-1.351499	80.832253	0.268541	0.954745	0.561999	2.021932	-1.262288	-4.035824	15.679559	0.273660	42.011520	14.173577	0.000000	-4.697484	2.264012	3.719825	4.738468	0.082702	33.815213	-11.217053	0.000000	0.306247	-0.032901	2.159104	0.568731	-0.043758	2.294048	0.503133	-0.079995	2.294048	0.350009	-0.079995	1.889216	0.284381	-0.067091	1.754272	0.174989	-0.050963	1.619328	2.187490	-0.372178	12.008287	0.000000	0.000000	26.482458	-7.296569	-13.579908	15.112347	-2.881561	80.424551	22.934044	28.312639	9.645504	2.780057	25.602878	-0.718290	112.412097	29.249136	17.153082	7.042932	-8.934847
1.745763	0.189616	-1.262411	80.808718	0.269020	0.954909	0.561219	1.755740	-1.218351	-4.047558	15.455375	0.269747	42.013892	14.261790	0.000000	-4.935072	2.231731	3.990523	4.557378	0.079541	33.690845	-11.551095	0.000000	0.290159	-0.027151	2.176699	0.538853	-0.036111	2.312743	0.476701	-0.066016	2.312743	0.331622	-0.066016	1.904612	0.269441	-0.055367	1.768568	0.165797	-0.042057	1.632524	2.072574	-0.307142	12.106146	0.000000	0.000000	26.132488	-7.225080	-13.637937	14.995669	-2.876241	80.089352	22.966671	28.679092	9.470477	2.734255	25.555147	-0.739289	112.319174	29.225923	17.336223	7.219634	-8.803979
1.762712	0.187365	-1.186354	80.819372	0.269494	0.955097	0.560565	1.476242	-1.198613	-4.022004	15.172459	0.264809	41.926522	14.227823	0.000000	-5.113431	2.217858	4.142962	4.441933	0.077526	33.588887	-11.714782	0.000000	0.273029	-0.027363	2.198029	0.507042	-0.036392	2.335406	0.448560	-0.066529	2.335406	0.312045	-0.066529	1.923276	0.253535	-0.055798	1.785899	0.156009	-0.042385	1.648522	1.950220	-0.309531	12.224780	0.000000	0.000000	25.659113	-7.092386	-13.758478	14.870643	-2.860073	79.660845	23.002657	29.018298	9.273679	2.698156	25.538572	-0.783795	112.178130	29.247905	17.697191	7.301141	-8.628332
1.779661	0.149360	-1.113440	80.808340	0.269967	0.955321	0.560061	1.205034	-1.221047	-4.012443	14.875091	0.259619	41.803044	14.225684	0.000000	-5.270057	2.244957	4.259778	4.326749	0.075516	33.466470	-11.863163	0.000000	0.254126	-0.033195	2.234516	0.471938	-0.044150	2.374173	0.417504	-0.080711	2.374173	0.290441	-0.080711	1.955201	0.235982	-0.067692	1.815544	0.145208	-0.051420	1.675887	1.815198	-0.375513	12.427705	0.000000	0.000000	25.027227	-6.907062	-13.986841	14.694272	-2.860778	78.863124	23.082593	29.606691	9.080277	2.718407	25.639823	-0.774646	112.564040	29.269348	17.499359	7.406780	-8.656020
1.796610	0.096271	-1.041788	80.812288	0.270368	0.955597	0.559674	0.939079	-1.263337	-4.025086	14.571273	0.254317	41.643954	14.230028	0.000000	-5.416169	2.296028	4.554300	4.197700	0.073264	33.263513	-12.237609	0.000000	0.234371	-0.041092	2.265298	0.435250	-0.054652	2.406879	0.385048	-0.099910	2.406879	0.267863	-0.099910	1.982136	0.217637	-0.083794	1.840555	0.133920	-0.063651	1.698973	1.674088	-0.464836	12.598908	0.000000	0.000000	24.248565	-6.670185	-14.213514	14.538783	-2.864623	78.084491	23.171019	30.118882	8.939812	2.765034	25.712126	-0.793309	112.771791	29.308380	17.450100	7.454159	-8.704084
